<svg width="50" height="50" viewBox="0 0 50 50" fill="none" xmlns="http://www.w3.org/2000/svg">
<rect width="50" height="50" rx="20" fill="#FFE7E7"/>
<path d="M36.7419 14.5832H36.766M18.75 45.8332H31.25C41.6667 45.8332 45.8334 41.6665 45.8334 31.2498V18.7498C45.8334 8.33317 41.6667 4.1665 31.25 4.1665H18.75C8.33335 4.1665 4.16669 8.33317 4.16669 18.7498V31.2498C4.16669 41.6665 8.33335 45.8332 18.75 45.8332ZM32.2917 24.9998C32.2917 29.0269 29.0271 32.2915 25 32.2915C20.9729 32.2915 17.7084 29.0269 17.7084 24.9998C17.7084 20.9728 20.9729 17.7082 25 17.7082C29.0271 17.7082 32.2917 20.9728 32.2917 24.9998Z" stroke="#292D32" stroke-width="1.5" stroke-linecap="round" stroke-linejoin="round"/>
</svg>
